<?xml version="1.0" encoding="UTF-8" standalone="no"?>
<!-- Created with Inkscape (http://www.inkscape.org/) -->

<svg
   width="10.476234mm"
   height="10.453448mm"
   viewBox="0 0 10.476234 10.453448"
   version="1.1"
   id="svg1"
   xmlns="http://www.w3.org/2000/svg"
   xmlns:svg="http://www.w3.org/2000/svg">
  <defs
     id="defs1" />
  <g
     id="layer1"
     transform="translate(-122.44546,-151.60008)">
    <path
       d="m 128.59791,153.68849 c 0.12417,-0.13547 0.29351,-0.33867 0.44026,-0.508 0.22578,-0.27093 0.3048,-0.36125 0.4064,-0.47414 l -0.4064,-0.39511 c -0.19191,0.0339 -0.48542,0.0452 -1.04987,0.0452 h -1.86266 c 0.0677,-0.079 0.1016,-0.11289 0.14675,-0.18062 0.0677,-0.0903 0.11289,-0.14676 0.12418,-0.15805 0.11289,-0.13546 0.11289,-0.13546 0.15804,-0.19191 l -0.92569,-0.22578 c -0.13546,0.27094 -0.39511,0.64347 -0.69991,0.99343 -0.66604,0.76764 -1.45627,1.38853 -2.48356,1.94169 0.21449,0.23706 0.31609,0.39511 0.42898,0.69991 0.47414,-0.3048 0.62089,-0.4064 1.02729,-0.72249 v 1.38853 c 0,0.32738 -0.0113,0.54187 -0.0451,0.8128 0.36124,-0.0226 0.58702,-0.0339 0.97084,-0.0339 h 2.22392 v 0.58702 h -2.7545 c -0.37253,0 -0.67733,-0.0113 -0.97084,-0.0339 0.0113,0.15805 0.0339,0.59832 0.0339,0.9144 v 1.76107 c 0,0.45156 -0.0113,0.77894 -0.0564,1.17405 h 0.88054 v -0.53058 h 2.86738 v 0.51929 c 0,0.55316 0.1016,0.73378 0.48542,0.85796 0.3048,0.0903 0.83538,0.12417 1.99813,0.12417 2.60774,0 2.93512,-0.079 3.18347,-0.77893 0.1016,-0.27093 0.13547,-0.41769 0.2032,-1.04987 -0.36124,-0.079 -0.54186,-0.14675 -0.79022,-0.31609 v 0.14676 c 0,0.44027 -0.0903,0.89182 -0.21449,1.02729 -0.18062,0.2032 -0.67733,0.27093 -2.15618,0.27093 -1.80622,0 -1.90782,-0.0226 -1.90782,-0.47413 v -0.32738 h 3.11573 c 0.39512,0 0.66605,0.0113 0.94827,0.0339 -0.0226,-0.2032 -0.0339,-0.34996 -0.0339,-0.6096 v -1.86267 c 0,-0.4064 0.0113,-0.63218 0.0452,-0.89182 -0.31609,0.0339 -0.63218,0.0451 -1.016,0.0451 h -3.05929 V 156.68 h 2.54 c 0.37253,0 0.66605,0.0113 0.98214,0.0339 -0.0339,-0.27093 -0.0452,-0.41768 -0.0452,-0.8128 v -1.43369 c 0,-0.39511 0.0113,-0.55315 0.0452,-0.82409 -0.30481,0.0339 -0.55316,0.0452 -1.01601,0.0452 z m -3.74792,0 c 0.23707,-0.22578 0.33867,-0.32738 0.69991,-0.69991 h 2.68676 c -0.21449,0.28222 -0.29351,0.37253 -0.58702,0.69991 z m 3.00285,2.39325 v -0.6096 h 2.66418 v 0.6096 z m 0,-1.18534 v -0.6096 h 2.66418 v 0.6096 z m -0.80151,-0.6096 v 0.6096 h -2.35938 v -0.6096 z m 0,1.18534 v 0.6096 h -2.35938 v -0.6096 z m 0.80151,4.42524 v -0.69991 h 3.21733 v 0.69991 z m 0,-1.33209 v -0.65475 h 3.21733 v 0.65475 z m -0.80151,-0.65475 v 0.65475 h -2.87867 v -0.65475 z m 0,1.28693 v 0.69991 h -2.87867 v -0.69991 z"
       id="text1"
       style="font-size:11.2889px;line-height:1.1;font-family:'American Horror Story';-inkscape-font-specification:'American Horror Story';text-align:center;letter-spacing:0px;word-spacing:0px;text-anchor:middle;stroke-width:2;stroke-linecap:square;stroke-miterlimit:0"
       aria-label="亀" />
  </g>
</svg>
